<svg width="1238" height="660" viewBox="0 0 1238 660" fill="none" xmlns="http://www.w3.org/2000/svg">
<path fill-rule="evenodd" clip-rule="evenodd" d="M60.893 -964.839C-48.35 -896.69 -79.68 -803.439 -105.645 -713.879C-107.021 -709.132 -108.382 -704.396 -109.739 -699.676L-109.76 -699.603L-109.762 -699.597C-134.013 -615.216 -156.853 -535.741 -239.346 -484.199C-396.236 -395.171 -537.276 -252.53 -584.906 -109.228C-608.736 -37.5261 -609.196 34.4209 -576.446 99.8608C-543.696 165.281 -477.846 223.971 -369.506 269.381C-199.416 340.681 -88.354 365.511 -6.71503 383.751C24.046 390.631 50.629 396.571 74.618 403.711C118.419 416.751 153.669 433.801 190.206 467.861C226.793 501.971 264.723 553.181 313.764 634.661C412.4 798.541 612.502 825.281 788.606 760.791C964.729 696.291 1117.58 540.331 1121.88 337.871C1125.03 189.711 1108.39 96.351 1095.67 24.9809L1095.67 24.9709C1091.07 -0.854126 1086.98 -23.7961 1084.53 -45.4111C1079.91 -86.0701 1081.07 -122.105 1095.38 -164.026C1109.71 -205.996 1137.26 -253.954 1185.6 -318.387C1234.29 -383.282 1246.58 -465.285 1232.44 -548.465C1218.29 -631.64 1177.7 -716.098 1120.46 -786.094C1006.03 -926.023 824.526 -1008.65 654.267 -906.641C569.792 -856.028 504.295 -842.913 450.202 -849.407C396.08 -855.904 353.141 -882.052 313.784 -910.454C305.495 -916.435 297.337 -922.539 289.264 -928.578L289.256 -928.583L289.249 -928.589L289.242 -928.594L289.234 -928.6L289.226 -928.605L289.219 -928.611L289.211 -928.617L289.203 -928.623C278.196 -936.857 267.349 -944.972 256.551 -952.492C237.759 -965.579 218.898 -977.031 199.05 -984.571C179.183 -992.117 158.328 -995.745 135.562 -993.184C112.805 -990.624 88.226 -981.89 60.893 -964.839ZM-237.776 -481.638C-154.265 -533.807 -131.125 -614.358 -106.94 -698.551L-106.935 -698.568C-105.552 -703.383 -104.165 -708.209 -102.764 -713.044C-76.83 -802.495 -45.754 -894.774 62.481 -962.294C89.517 -979.159 113.673 -987.703 135.898 -990.203C158.115 -992.702 178.49 -989.172 197.984 -981.766C217.497 -974.354 236.125 -963.061 254.836 -950.03C265.646 -942.501 276.411 -934.447 287.381 -926.24L287.382 -926.238C295.454 -920.199 303.636 -914.078 312.028 -908.021C351.487 -879.546 394.94 -853.02 449.844 -846.429C504.775 -839.834 570.937 -853.217 655.809 -904.068C824.243 -1004.98 1004.18 -923.547 1118.14 -784.195C1175.09 -714.55 1215.43 -630.563 1229.48 -547.962C1243.53 -465.365 1231.27 -384.259 1183.2 -320.187C1134.78 -255.652 1107.02 -207.4 1092.54 -164.996C1078.05 -122.543 1076.9 -86.0391 1081.55 -45.0731C1084.02 -23.2481 1088.13 -0.177124 1092.75 25.7409C1105.47 97.0809 1122.03 189.981 1118.88 337.811C1114.61 538.681 962.912 693.761 787.574 757.971C612.216 822.191 413.941 795.281 316.334 633.111C267.254 551.571 229.151 500.061 192.252 465.671C155.302 431.221 119.611 413.981 75.474 400.841C51.267 393.631 24.549 387.661 -6.31403 380.761C-87.9301 362.521 -198.536 337.801 -368.346 266.621C-476.256 221.381 -541.426 163.101 -573.756 98.5209C-606.086 33.9509 -605.696 -37.1481 -582.056 -108.281C-534.746 -250.64 -394.366 -392.792 -237.836 -481.605L-237.806 -481.621L-237.776 -481.638ZM93.245 -904.743C-7.479 -841.91 -37.043 -755.508 -61.9641 -672.466C-63.1821 -668.409 -64.388 -664.36 -65.591 -660.323L-65.593 -660.317C-89.032 -581.66 -111.149 -507.442 -188.694 -459.429C-333.926 -377.376 -463.176 -244.942 -506.346 -111.993C-527.956 -45.4691 -528.026 21.2659 -497.656 81.8409C-467.286 142.391 -406.596 196.571 -307.116 238.211C-151.558 303.281 -49.073 326.951 26.573 344.421C56.023 351.221 81.405 357.081 104.267 364.081C145.044 376.571 177.914 392.681 211.859 424.201C245.851 455.771 280.973 502.851 326.138 577.381L326.142 577.391C418.975 728.881 604.187 753.501 767.072 693.831C929.973 634.151 1071.24 489.941 1076.37 302.851C1080.14 165.281 1064.77 78.751 1052.99 12.4589L1052.99 12.4579V12.4559L1052.99 12.4419L1052.99 12.4329C1048.81 -11.0951 1045.08 -32.0751 1042.83 -51.8841C1038.52 -89.6741 1039.54 -123.27 1052.86 -162.409C1066.19 -201.594 1091.89 -246.424 1137.1 -306.609C1182.94 -367.603 1194.66 -443.983 1181.64 -521.208C1168.63 -598.426 1130.87 -676.583 1077.59 -741.314C971.09 -870.714 802.051 -946.951 644.204 -853.761L644.203 -853.76C566.197 -807.587 505.801 -795.749 455.912 -801.787C405.995 -807.829 366.371 -831.789 329.911 -857.692C322.733 -862.792 315.67 -867.974 308.671 -873.11L308.601 -873.161L308.588 -873.171L308.574 -873.181C280.164 -894.029 252.808 -914.103 223.091 -924.802C185.805 -938.226 144.83 -936.921 93.245 -904.743ZM-187.14 -456.863C-108.579 -505.491 -86.157 -580.765 -62.785 -659.233C-61.559 -663.349 -60.33 -667.473 -59.091 -671.604C-34.197 -754.553 -4.89105 -839.989 94.832 -902.198C145.709 -933.934 185.728 -935.065 222.075 -921.979C251.342 -911.442 278.245 -891.705 306.62 -870.889C313.693 -865.7 320.859 -860.444 328.174 -855.246C364.729 -829.275 404.862 -804.944 455.552 -798.809C506.27 -792.67 567.328 -804.77 645.731 -851.178C801.765 -943.298 969.25 -868.229 1075.28 -739.408C1128.26 -675.029 1165.77 -597.346 1178.68 -520.71C1191.6 -444.08 1179.93 -368.59 1134.71 -308.411C1089.41 -248.121 1063.5 -202.997 1050.02 -163.375C1036.52 -123.706 1035.51 -89.6411 1039.85 -51.5441C1042.13 -31.5302 1045.88 -10.4221 1050.07 13.2029L1050.07 13.2059V13.2069C1061.84 79.4709 1077.13 165.541 1073.37 302.771C1068.29 488.281 928.152 631.621 766.039 691.011C603.912 750.411 420.508 725.631 328.704 575.831C283.497 501.231 248.203 453.861 213.901 422.011C179.551 390.101 146.25 373.801 105.146 361.221C82.052 354.151 56.5309 348.251 26.976 341.431C-48.639 323.961 -150.655 300.401 -305.956 235.441C-405.006 193.981 -465.026 140.221 -494.976 80.4908C-524.916 20.7808 -524.916 -45.1101 -503.496 -111.066C-460.626 -243.068 -332.046 -375.002 -187.192 -456.832L-187.165 -456.847L-187.14 -456.863ZM25.407 -589.648C48.239 -659.651 74.27 -732.352 157.955 -784.553C203.228 -812.789 238.968 -815.276 271.168 -805.268C297.856 -796.972 322.055 -780.084 347.082 -762.619C352.069 -759.139 357.089 -755.635 362.168 -752.173C392.835 -731.265 425.831 -711.679 467.341 -706.548C471.518 -706.032 475.783 -705.662 480.142 -705.452L402.666 -684.172C423.626 -672.108 446.394 -662.267 473.059 -658.925C510.337 -654.254 555.438 -662.265 614.032 -695.12L614.039 -695.124C734.639 -761.84 866.269 -704.79 948.986 -606.978C1031.67 -509.205 1066.17 -369.87 991.629 -271.273C955.803 -223.832 935.666 -188.388 925.313 -157.555C914.975 -126.768 914.362 -100.489 917.746 -71.3011C919.422 -56.8541 922.082 -41.6821 925.023 -24.9061C933.981 26.1808 945.546 92.1409 939.851 197.801C932.254 338.751 825.717 447.711 702.482 492.951C579.25 538.191 438.721 519.911 363.296 405.581L363.286 405.561L363.276 405.551C329.74 351.881 303.041 317.201 276.833 293.241C250.662 269.311 224.925 256.011 193.217 245.201C173.402 238.441 151.33 232.671 125.375 225.881C109.662 221.771 92.525 217.291 73.605 211.991C23.501 197.971 -38.889 178.271 -119.912 144.701H-119.914C-192.836 114.371 -238.066 73.7208 -261.276 27.7609C-284.496 -18.2042 -285.606 -69.2841 -270.686 -120.274C-240.866 -222.168 -147.011 -323.987 -36.728 -385.122C26.061 -422.562 46.094 -481.066 67.147 -542.551L67.738 -544.274L68.425 -546.28C68.649 -546.933 68.873 -547.587 69.097 -548.24C74.727 -564.644 80.522 -581.206 87.318 -597.558L25.623 -580.613C3.85498 -513.597 -17.173 -448.862 -85.855 -407.313L-85.877 -407.299L-85.9 -407.286C-207.406 -339.426 -312.396 -227.93 -346.366 -116.642C-363.346 -61.0401 -362.576 -5.56409 -337.396 44.4309C-312.206 94.4409 -262.486 139.191 -181.161 173.101C-55.063 225.541 29.621 246.681 93.133 262.531C120.259 269.301 143.523 275.101 164.502 281.971C199.539 293.451 228.058 307.871 257.204 334.681C286.308 361.461 315.984 400.541 353.441 461.241C433.638 586.331 587.311 606.861 722.977 557.091C858.637 507.331 975.653 387.481 982.359 232.681C987.383 116.721 974.633 44.3508 964.744 -11.7741C961.381 -30.8641 958.348 -48.0771 956.458 -64.4881C952.732 -96.8461 953.473 -126.032 964.984 -160.134C976.48 -194.191 998.685 -233.06 1037.72 -284.861C1116.75 -389.631 1079.75 -542.025 989.552 -649.833C899.396 -757.59 756.813 -819.929 625.573 -745.396L613.393 -742.05C616.912 -743.949 620.476 -745.932 624.085 -748.001L624.09 -748.004C757.107 -823.548 901.209 -760.099 991.853 -651.758C1082.46 -543.466 1120.37 -389.451 1040.12 -283.054C1001.16 -231.365 979.174 -192.792 967.827 -159.175C956.495 -125.604 955.747 -96.8861 959.439 -64.8311C961.307 -48.6021 964.32 -31.5041 967.67 -12.4961C977.564 43.6509 990.396 116.481 985.356 232.811C978.583 389.141 860.467 509.851 724.01 559.911C587.562 609.961 432.136 589.561 350.908 462.841L350.901 462.831L350.894 462.821C313.482 402.201 283.975 363.391 255.173 336.891C226.412 310.431 198.298 296.201 163.568 284.821C142.86 278.041 119.749 272.271 92.735 265.531C29.165 249.661 -56.012 228.391 -182.314 175.871C-264.095 141.771 -314.476 96.6108 -340.076 45.7809C-365.676 -5.05115 -366.386 -61.3511 -349.236 -117.518C-314.976 -229.764 -209.316 -341.786 -87.385 -409.893C-19.695 -450.854 1.013 -514.584 22.852 -581.793L22.865 -581.834C23.71 -584.434 24.556 -587.039 25.407 -589.648ZM480.142 -705.452C516.679 -703.691 559.865 -713.168 613.393 -742.05L480.142 -705.452ZM90.995 -598.568C83.851 -581.624 77.812 -564.392 71.935 -547.267C71.598 -546.284 71.261 -545.302 70.925 -544.321C70.591 -543.347 70.2579 -542.373 69.924 -541.399L69.909 -541.355L69.894 -541.311C48.913 -480.021 28.553 -420.545 -35.212 -382.533L-35.232 -382.521L-35.253 -382.509C-145.075 -321.636 -238.276 -220.362 -267.806 -119.431C-282.556 -69.0051 -281.406 -18.7361 -258.596 26.4109C-235.796 71.5609 -191.226 111.791 -118.762 141.931C-37.869 175.441 24.405 195.101 74.413 209.111C93.1899 214.361 110.27 218.831 125.97 222.931H125.971C152.025 229.751 174.28 235.571 194.186 242.361C226.189 253.271 252.314 266.751 278.858 291.021C305.362 315.261 332.228 350.201 365.81 403.941C440.206 516.691 579.015 535.081 701.448 490.131C823.882 445.191 929.339 337.081 936.855 197.641C942.53 92.3608 931.048 26.8709 922.097 -24.1941V-24.1971L922.096 -24.1981V-24.2001L922.095 -24.2011C919.141 -41.0551 916.462 -56.3361 914.766 -70.9561C911.347 -100.444 911.952 -127.191 922.469 -158.51C932.97 -189.784 953.323 -225.526 989.235 -273.082C1062.56 -370.062 1028.95 -507.775 946.695 -605.041C864.474 -702.265 734.341 -758.244 615.496 -692.501C556.5 -659.422 510.757 -651.177 472.686 -655.948C444.403 -659.493 420.47 -670.21 398.612 -683.059L354.74 -671.009C365.542 -665.174 376.089 -658.342 386.781 -651.416C389.709 -649.52 392.647 -647.616 395.605 -645.724C420.485 -629.808 446.854 -614.592 479.965 -610.372C513.043 -606.156 553.047 -612.894 605.17 -641.31L605.181 -641.316C713.359 -699.2 832.515 -648.552 907.305 -561.269C982.071 -474.014 1013.16 -349.359 944.327 -258.563C911.63 -215.369 893.347 -183.054 883.987 -155.006C874.643 -127.003 874.164 -103.163 877.242 -76.8421C878.725 -64.1651 881.037 -50.9021 883.578 -36.3291L883.578 -36.3281C891.602 9.69189 901.902 68.771 895.533 163.721C887.11 289.291 792.156 386.491 682.141 426.921C572.125 467.351 446.496 451.181 376.875 349.251L376.861 349.231L376.847 349.211C347.188 302.491 323.297 271.941 299.682 250.521C276.099 229.121 252.738 216.761 224.051 206.501C205.128 199.731 183.955 193.891 158.881 186.981C145.827 183.381 131.717 179.491 116.317 175.031C71.39 162.011 15.674 144.141 -56.322 114.461H-56.325C-120.4 87.9009 -160.465 51.7609 -181.297 10.6709C-202.126 -30.4251 -203.626 -76.2841 -190.936 -122.095C-165.584 -213.638 -83.519 -305.256 15.12 -359.422C73.031 -393.346 92.418 -446.64 112.701 -502.4L113.304 -504.059L113.977 -505.907C128.442 -545.633 143.764 -586.351 174.322 -621.455L90.995 -598.568ZM350.526 -669.851L179.634 -622.914C147.449 -587.531 131.737 -545.915 116.796 -504.881C116.355 -503.668 115.914 -502.456 115.473 -501.245L115.417 -501.091C95.209 -445.527 75.487 -391.299 16.618 -356.822L16.6 -356.812L16.582 -356.802C-81.557 -302.916 -162.962 -211.867 -188.049 -121.294C-200.586 -76.0432 -199.046 -30.9791 -178.621 9.3139C-158.193 49.611 -118.774 85.3309 -55.176 111.691C16.698 141.321 72.307 159.151 117.152 172.151C132.437 176.581 146.494 180.451 159.528 184.051H159.529C184.686 190.981 206.036 196.871 225.061 203.671C254.029 214.031 277.759 226.571 301.698 248.291C325.602 269.991 349.659 300.781 379.367 347.581C447.96 447.981 571.908 464.241 681.107 424.111C790.314 383.971 884.216 287.611 892.54 163.521C898.882 68.9708 888.665 10.3569 880.647 -35.6421L880.646 -35.6451C878.093 -50.2891 875.764 -63.6551 874.263 -76.4931C871.15 -103.111 871.619 -127.419 881.142 -155.955C890.649 -184.447 909.15 -217.062 941.935 -260.374H941.936C1009.55 -349.565 979.335 -472.595 905.027 -559.317C830.742 -646.01 713.053 -695.631 606.599 -638.672C554.073 -610.039 513.437 -603.081 479.586 -607.396C445.766 -611.707 418.915 -627.251 393.988 -643.197C391.012 -645.101 388.065 -647.009 385.139 -648.903L385.138 -648.904L385.135 -648.906C373.473 -656.457 362.131 -663.801 350.526 -669.851ZM-109.796 -122.806C-88.899 -203.998 -18.63 -285.42 68.37 -332.618C121.441 -363.034 140.221 -411.142 159.753 -461.174L160.262 -462.476C179.952 -512.905 200.689 -565.047 258.805 -601.292C294.593 -623.605 322.458 -627.862 347.007 -622.999C369.31 -618.581 388.738 -606.642 408.63 -594.418L408.698 -594.376C410.564 -593.23 412.434 -592.081 414.31 -590.935C436.301 -577.513 459.358 -564.48 488.274 -560.714C517.154 -556.953 552.062 -562.421 597.715 -586.399L597.722 -586.402L597.729 -586.406C693.482 -635.452 800.159 -591.212 867.024 -514.457C933.878 -437.715 961.548 -327.741 898.427 -244.747C868.86 -205.802 852.429 -176.615 844.064 -151.352C835.713 -126.133 835.369 -104.732 838.14 -81.2781C839.43 -70.3561 841.401 -58.9811 843.549 -46.5751C850.644 -5.61316 859.684 46.5808 852.617 130.751C843.366 240.931 759.998 326.381 663.203 362.001C566.401 397.621 455.675 383.551 391.86 294.031L391.841 294.001L391.823 293.971C366.041 254.211 344.957 227.801 323.934 208.901C302.938 190.031 281.949 178.601 256.282 168.901C238.094 162.021 217.614 156.031 193.12 148.851H193.119C182.954 145.881 172.097 142.701 160.427 139.171C120.679 127.151 71.638 111.131 8.66998 85.3309H8.66699C-46.56 62.5409 -81.4661 30.9109 -99.912 -5.31708C-118.359 -41.5391 -120.254 -82.1751 -109.796 -122.806ZM9.80896 82.5509C-44.92 59.9709 -79.191 28.7609 -97.239 -6.6781C-115.288 -42.1211 -117.206 -81.9831 -106.891 -122.058C-86.245 -202.274 -16.633 -283.095 69.816 -329.989L69.831 -329.997L69.847 -330.006C123.851 -360.95 142.977 -409.946 162.431 -459.783L163.056 -461.385C182.758 -511.845 203.207 -563.082 260.393 -598.747C295.683 -620.75 322.78 -624.74 346.424 -620.056C368.17 -615.749 387.136 -604.099 407.123 -591.822C408.988 -590.677 410.861 -589.526 412.747 -588.375C434.762 -574.938 458.29 -561.594 487.886 -557.74C517.517 -553.881 553.046 -559.55 599.104 -583.739C693.17 -631.916 798.415 -588.647 864.762 -512.487C931.121 -436.313 957.95 -327.965 896.038 -246.562L896.037 -246.561C866.378 -207.494 849.729 -178.005 841.216 -152.295C832.688 -126.542 832.355 -104.674 835.161 -80.9261C836.468 -69.8571 838.454 -58.3881 840.613 -45.9191L840.615 -45.9101L840.615 -45.9071C847.704 -4.96613 856.659 46.7509 849.627 130.501C840.497 239.251 758.147 323.871 662.167 359.181C566.206 394.501 457.114 380.371 394.322 292.311C368.488 252.471 347.241 225.811 325.94 206.671C304.607 187.491 283.273 175.901 257.343 166.091C239.042 159.171 218.396 153.131 193.842 145.941H193.838H193.836L193.805 145.931C183.67 142.961 172.87 139.801 161.295 136.301C121.613 124.301 72.667 108.311 9.80896 82.5509ZM121.706 -305.757C46.335 -265.523 -12.136 -194.291 -28.572 -123.45C-36.797 -88.0001 -34.504 -52.5901 -18.447 -21.2441C-2.38605 10.1069 27.36 37.2308 73.741 56.2509H73.745C127.683 78.1709 170.047 92.3608 204.614 103.371C212.17 105.771 219.348 108.031 226.189 110.171H226.191L226.201 110.181C250.681 117.861 270.847 124.191 288.588 131.361C311.238 140.511 329.857 151.001 348.269 167.341C366.702 183.711 384.979 205.991 406.882 238.801L406.906 238.841L406.931 238.871C464.939 315.981 560.755 327.951 644.346 297.141C727.922 266.331 799.7 192.641 809.78 97.851C817.578 24.5309 809.795 -20.7561 803.622 -56.6671L803.622 -56.6701C801.854 -66.9551 800.218 -76.4711 799.119 -85.6571C796.655 -106.245 796.865 -125.207 804.222 -147.642C811.594 -170.119 826.17 -196.176 852.607 -230.872C910.015 -306.06 885.769 -401.357 826.822 -467.59C767.881 -533.817 673.687 -571.641 590.367 -531.441L590.358 -531.436L590.349 -531.432C551.167 -511.89 521.351 -507.692 496.665 -510.998C471.94 -514.309 452.193 -525.162 433.088 -536.093L431.915 -536.764L430.573 -537.533C412.416 -547.94 394.599 -558.151 373.671 -561.139C351.684 -564.278 326.453 -559.435 293.834 -539.101C244.583 -508.387 225.53 -463.508 207.013 -419.89L206.632 -418.994C187.964 -375.025 169.646 -332.484 121.706 -305.757ZM-15.776 -22.6121C-0.106018 7.97791 29.0189 34.6709 74.877 53.4709C128.718 75.351 171.003 89.5109 205.525 100.511C213.037 102.901 220.188 105.141 227.013 107.291H227.016H227.019C251.527 114.981 271.848 121.361 289.712 128.581C312.603 137.821 331.537 148.481 350.261 165.101C368.958 181.701 387.393 204.211 409.354 237.101C466.346 312.831 560.586 324.811 643.309 294.321C726.06 263.821 796.863 190.941 806.797 97.5309C814.547 24.6709 806.85 -20.1321 800.684 -56.0211L800.683 -56.0261L800.682 -56.0321C798.906 -66.3761 797.256 -75.9791 796.14 -85.3011C793.641 -106.177 793.838 -125.606 801.371 -148.577C808.891 -171.504 823.687 -197.867 850.221 -232.691L850.222 -232.692C906.432 -306.31 882.984 -399.974 824.581 -465.596C766.174 -531.223 673.365 -568.149 591.679 -528.743C552.091 -509 521.672 -504.622 496.267 -508.025C470.899 -511.422 450.695 -522.563 431.598 -533.489C430.811 -533.939 430.025 -534.389 429.242 -534.838C410.948 -545.32 393.59 -555.265 373.247 -558.169C352.128 -561.184 327.604 -556.617 295.421 -536.555C246.977 -506.344 228.248 -462.231 209.67 -418.473L209.394 -417.822C190.756 -373.925 172.11 -330.418 123.154 -303.13L123.142 -303.123L123.13 -303.117C48.379 -263.217 -9.44104 -192.631 -25.65 -122.772C-33.747 -87.8711 -31.45 -53.2091 -15.776 -22.6121ZM134.264 -124.389C141.759 -174.516 176.62 -225.414 228.783 -251.74C265.563 -270.577 283.23 -300.868 299.792 -331.769C300.769 -333.592 301.742 -335.417 302.715 -337.241C318.198 -366.28 333.695 -395.345 364.285 -414.415C390.554 -430.784 410.489 -436.781 427.31 -437.103C444.128 -437.426 457.645 -432.068 470.974 -426.13C471.393 -425.943 471.813 -425.756 472.232 -425.568C472.545 -425.428 472.859 -425.287 473.172 -425.146C473.854 -424.839 474.536 -424.532 475.218 -424.225C487.162 -418.842 499.207 -413.413 513.85 -411.262C530.172 -408.864 549.816 -410.537 576.058 -421.215L576.072 -421.22L576.085 -421.225C634.497 -443.692 703.695 -418.739 746.797 -373.568C768.376 -350.954 783.518 -323.177 787.506 -293.564C791.498 -263.917 784.294 -232.534 761.36 -202.819C741.186 -176.623 730.317 -156.827 724.933 -139.922C719.562 -123.056 719.619 -108.971 721.47 -94.1151C722.194 -88.3031 723.195 -82.3691 724.25 -76.1101C728.611 -50.2571 733.907 -18.8591 724.491 32.3909C712.741 96.3508 664.169 146.531 607.028 167.711C549.849 188.911 483.879 181.131 437.499 128.891L437.457 128.841L437.42 128.791C409.167 91.0409 386.747 72.621 353.566 56.5609C336.924 48.5109 317.565 41.0509 293.357 32.0509C288.752 30.3409 283.972 28.5709 279.004 26.7409H279.002C257.871 18.9269 233.33 9.8559 204.295 -1.59113L204.287 -1.59412C175.579 -13.0851 156.161 -31.2031 144.881 -52.7931C133.609 -74.3681 130.514 -99.3091 134.264 -124.389ZM205.399 -4.38013C177.302 -15.6281 158.462 -33.2791 147.54 -54.1831C136.609 -75.1031 133.559 -99.3831 137.231 -123.945C144.581 -173.102 178.834 -223.172 230.138 -249.064L230.146 -249.068C267.827 -268.365 285.861 -299.427 302.436 -330.352L302.8 -331.032L303.12 -331.63L303.631 -332.586L303.897 -333.083C304.36 -333.95 304.822 -334.817 305.284 -335.683C320.845 -364.852 335.988 -393.239 365.872 -411.869C391.851 -428.058 411.258 -433.795 427.368 -434.104C443.481 -434.413 456.482 -429.302 469.753 -423.39C471.161 -422.763 472.572 -422.126 473.99 -421.487L473.991 -421.486C485.904 -416.114 498.332 -410.509 513.414 -408.294C530.345 -405.806 550.526 -407.59 577.174 -418.43C634.144 -440.335 702.108 -416.056 744.627 -371.497C765.86 -349.245 780.645 -322.029 784.533 -293.163C788.415 -264.331 781.443 -233.749 758.984 -204.651L758.983 -204.649C738.699 -178.31 727.605 -158.198 722.074 -140.832C716.531 -123.426 716.608 -108.876 718.493 -93.7441C719.23 -87.8241 720.242 -81.8201 721.304 -75.5161C725.654 -49.6981 730.854 -18.8411 721.54 31.851C710.007 94.631 662.274 144.031 605.985 164.901C549.75 185.741 485.187 178.051 439.784 126.951C411.304 88.8909 388.531 70.1509 354.872 53.8608C338.086 45.7408 318.602 38.231 294.402 29.2409C289.79 27.5209 285.006 25.7609 280.035 23.9209C258.906 16.1109 234.4 7.05286 205.399 -4.38013ZM282.678 -224.486C242.057 -205.093 219.031 -164.301 216.024 -124.556C213.016 -84.8011 230.045 -45.7561 269.912 -30.2611L269.92 -30.2581C377.232 10.7499 412.099 26.371 453.071 74.0909L453.113 74.1409L453.158 74.1809C493.705 113.951 544.733 119.641 588.712 103.251C632.641 86.8708 669.587 48.4609 682.174 -0.0330811C692.534 -39.9501 688.458 -64.3641 684.975 -85.2291C684.239 -89.6381 683.529 -93.8891 682.988 -98.0941C681.444 -110.087 681.254 -121.733 685.632 -135.813C690.023 -149.93 699.038 -166.595 716.078 -188.538C736.132 -214.32 742.79 -240.071 739.928 -263.79C737.07 -287.478 724.737 -308.969 707.113 -326.319C671.92 -360.962 615.249 -379.444 569.344 -365.879L569.33 -365.875L569.317 -365.871C549.539 -359.615 534.962 -359.193 522.795 -361.14C513.708 -362.594 505.98 -365.353 498.288 -368.1L498.287 -368.101L498.284 -368.102L498.283 -368.103C495.599 -369.061 492.918 -370.018 490.186 -370.917C479.671 -374.379 468.646 -376.869 454.407 -374.811C440.207 -372.759 422.939 -366.202 399.854 -351.82L400.6 -350.622L399.853 -351.82C378.491 -338.508 365.269 -317.434 351.707 -295.817C350.062 -293.195 348.412 -290.566 346.742 -287.94C331.239 -263.574 313.895 -239.389 282.678 -224.486ZM219.016 -124.33C216.079 -85.5111 232.684 -47.9511 270.995 -33.0591C378.218 7.91492 413.795 23.757 455.305 72.0809C494.929 110.921 544.678 116.461 587.664 100.441C630.718 84.3909 666.94 46.7208 679.27 -0.786133C689.461 -40.0501 685.493 -63.8521 682.024 -84.6661C681.283 -89.11 680.565 -93.4181 680.012 -97.7111C678.434 -109.969 678.22 -122.08 682.768 -136.704C687.304 -151.291 696.547 -168.279 713.708 -190.378L713.709 -190.379C733.34 -215.616 739.706 -240.592 736.95 -263.431C734.191 -286.299 722.264 -307.194 705.008 -324.181C670.442 -358.207 614.872 -376.197 570.208 -363.006C550.033 -356.626 534.987 -356.151 522.321 -358.178C512.94 -359.679 504.847 -362.569 497.091 -365.338L497.087 -365.34L497.082 -365.342C494.444 -366.285 491.845 -367.213 489.248 -368.067C478.965 -371.452 468.44 -373.808 454.836 -371.842C441.193 -369.87 424.325 -363.531 401.44 -349.274C380.704 -336.352 367.864 -315.902 354.24 -294.206C352.601 -291.595 350.95 -288.966 349.273 -286.33C333.722 -261.889 315.998 -237.069 283.971 -221.778C244.453 -202.912 221.953 -163.16 219.016 -124.33ZM298.201 -124.357C296.705 -153.634 307.797 -184.462 337.003 -196.955C362.673 -207.935 379.703 -226.031 394.142 -243.868C396.985 -247.38 399.745 -250.905 402.454 -254.365C406.582 -259.638 410.593 -264.759 414.601 -269.458C421.27 -277.275 428.095 -284.124 435.828 -288.94C475.614 -313.715 494.146 -317.335 509.66 -315.428C514.282 -314.86 518.514 -313.842 522.885 -312.791L522.886 -312.79H522.888L522.89 -312.789C533.207 -310.307 544.299 -307.639 563.114 -310.256C596.409 -314.887 640.516 -302.914 667.808 -278.806C681.486 -266.723 691.033 -251.507 692.759 -233.716C694.486 -215.915 688.359 -195.797 671.2 -173.969C657.296 -156.282 650.137 -142.751 646.74 -131.423C643.353 -120.13 643.674 -110.923 644.912 -101.791C645.269 -99.1521 645.709 -96.4931 646.159 -93.7791L646.162 -93.7611V-93.7571L646.163 -93.7561C647.258 -87.1421 648.407 -80.2041 648.549 -72.4451C648.751 -61.3931 646.935 -48.5871 640.224 -32.0911C626.816 0.869873 601.522 27.5109 570.805 39.0709C540.022 50.6609 503.953 47.0509 469.277 19.7919C466.714 17.7779 464.045 15.6399 461.246 13.3979C435.889 -6.91309 399.849 -35.7791 335.967 -58.6341C324.831 -62.6181 315.762 -71.8021 309.31 -83.5351C302.853 -95.2781 298.95 -109.688 298.201 -124.357ZM311.939 -84.9801C318.161 -73.6641 326.74 -65.1221 336.977 -61.4591C401.344 -38.4311 437.722 -9.29016 463.115 11.0499L463.126 11.0589C465.919 13.2969 468.58 15.4279 471.131 17.4329C505.025 44.0809 539.997 47.4708 569.748 36.2609C599.567 25.0409 624.303 -0.913147 637.445 -33.2211C644.01 -49.3591 645.744 -61.7621 645.549 -72.3901C645.412 -79.9202 644.319 -86.5151 643.237 -93.0431C642.777 -95.8151 642.32 -98.5741 641.939 -101.388C640.668 -110.769 640.314 -120.441 643.866 -132.285C647.408 -144.095 654.8 -157.961 668.842 -175.823C685.662 -197.22 691.406 -216.591 689.773 -233.426C688.139 -250.27 679.093 -264.834 665.822 -276.558C639.214 -300.061 595.993 -311.801 563.528 -307.285C544.126 -304.586 532.19 -307.448 521.705 -309.961L521.701 -309.962C517.461 -310.979 513.458 -311.938 509.294 -312.45C494.815 -314.23 477.018 -311.055 437.414 -286.393C430.07 -281.82 423.481 -275.244 416.883 -267.511C412.9 -262.842 408.973 -257.825 404.887 -252.605L404.885 -252.603L404.884 -252.602C402.171 -249.136 399.389 -245.582 396.473 -241.98C381.942 -224.029 364.536 -205.469 338.183 -194.196C310.578 -182.388 299.737 -153.098 301.197 -124.51C301.925 -110.246 305.722 -96.2861 311.939 -84.9801ZM125.599 -844.648C33.394 -787.131 5.59802 -707.579 -18.279 -631.056C-19.322 -627.713 -20.358 -624.377 -21.39 -621.049C-44.025 -548.116 -65.4301 -479.146 -138.04 -434.661C-271.626 -359.582 -389.076 -237.355 -427.796 -114.757C-447.176 -53.4111 -446.856 8.1059 -418.866 63.8109C-390.876 119.501 -335.346 169.171 -244.716 207.041C-103.747 265.851 -9.88599 288.341 59.74 305.021C87.934 311.771 112.154 317.581 133.919 324.451C171.672 336.381 202.163 351.551 233.516 380.551C264.912 409.581 297.227 452.521 338.516 520.101L338.52 520.111H338.524C425.555 659.221 595.875 681.731 745.541 626.871C895.219 572.001 1024.91 439.541 1030.86 267.831C1035.26 140.861 1021.16 61.1809 1010.33 -0.0361328V-0.0380859C1006.57 -21.3021 1003.2 -40.3391 1001.13 -58.3571C997.135 -93.2801 998.017 -124.437 1010.34 -160.792C1022.68 -197.193 1046.53 -238.895 1088.61 -294.832C1174.57 -409.027 1133.25 -577.723 1034.72 -696.536C936.15 -815.406 779.579 -885.25 634.146 -800.882L634.143 -800.88C562.608 -759.147 507.31 -748.585 461.626 -754.168C415.913 -759.754 379.603 -781.526 346.041 -804.932C339.899 -809.215 333.842 -813.558 327.834 -817.868L327.831 -817.87L327.828 -817.872C301.106 -837.037 275.328 -855.525 247.132 -865.034C212.388 -876.752 174.03 -874.856 125.599 -844.648ZM-136.497 -432.088C-62.882 -477.177 -41.165 -547.178 -18.599 -619.92L-18.591 -619.947C-17.536 -623.347 -16.4791 -626.753 -15.415 -630.162C8.43799 -706.61 35.9739 -785.204 127.187 -842.103C174.941 -871.889 212.371 -873.592 246.173 -862.192C273.902 -852.84 299.226 -834.683 325.929 -815.538L325.939 -815.531L325.949 -815.523C331.989 -811.193 338.1 -806.812 344.325 -802.471C377.974 -779.005 414.788 -756.869 461.262 -751.19C507.766 -745.507 563.72 -756.323 635.654 -798.289C779.29 -881.613 934.323 -812.91 1032.41 -694.621C1130.55 -576.273 1170.95 -409.197 1086.21 -296.636C1044.05 -240.591 1019.99 -198.594 1007.5 -161.755C994.996 -124.869 994.119 -93.2441 998.152 -58.0161C1000.24 -39.8071 1003.63 -20.6521 1007.41 0.695923V0.697876C1018.23 61.8909 1032.25 141.111 1027.86 267.731C1021.97 437.881 893.395 569.471 744.508 624.051C595.611 678.631 427.072 655.981 341.072 518.531C299.74 450.891 267.256 407.661 235.553 378.341C203.804 348.991 172.894 333.621 134.822 321.591C112.81 314.641 88.445 308.801 60.144 302.021C-9.44104 285.351 -102.825 262.981 -243.556 204.271C-333.746 166.581 -388.616 117.331 -416.186 62.4609C-443.746 7.60895 -444.136 -53.0741 -424.936 -113.853C-386.516 -235.498 -269.726 -357.214 -136.546 -432.06L-136.521 -432.073L-136.497 -432.088ZM175.158 -278.812C111.404 -245.536 64.7339 -184.482 52.764 -123.995C46.775 -93.7281 49.467 -63.5491 63.134 -37.0851C76.806 -10.6101 101.39 12.0079 138.93 27.2609L138.936 27.2709C183.84 45.2909 219.525 57.6409 248.909 67.6509C251.527 68.5409 254.094 69.4109 256.613 70.2609L256.617 70.2709H256.62C282.389 79.0209 303.084 86.0509 321 93.9009C360.177 111.051 386.058 132.071 422.062 183.721L422.092 183.771L422.125 183.811C474.323 248.491 555.221 258.361 625.604 232.361C695.962 206.361 756.142 144.431 767.056 65.0509C775.63 2.6839 769.095 -35.6711 763.836 -66.5431L763.835 -66.5491C762.433 -74.7761 761.122 -82.4731 760.212 -89.9501C758.054 -107.672 758.13 -124.195 764.495 -143.846C770.872 -163.537 783.596 -186.465 806.901 -216.911C858.593 -284.29 837.78 -364.91 786.73 -420.641C735.71 -476.34 654.008 -507.736 583.132 -476.394L583.121 -476.389L583.11 -476.384C550.398 -461.277 525.672 -458.344 505.173 -461.195C484.954 -464.008 468.711 -472.458 452.73 -480.772L451.963 -481.171C435.79 -489.582 419.786 -497.784 400.425 -499.19C381.012 -500.6 358.423 -495.176 328.977 -476.823C289.078 -451.944 271.693 -414.952 254.607 -378.594C254.113 -377.541 253.618 -376.489 253.124 -375.438C235.506 -338.001 217.514 -301.591 175.158 -278.812ZM65.8 -38.4611C79.094 -12.7181 103.075 9.45392 140.057 24.4809C184.886 42.481 220.511 54.8109 249.875 64.8109C252.503 65.7009 255.081 66.5809 257.611 67.4409H257.612C283.341 76.1809 304.162 83.2509 322.203 91.1509C361.985 108.571 388.264 130.001 424.493 181.971C475.688 245.371 555.084 255.211 624.564 229.541C694.085 203.861 753.348 142.721 764.083 64.6409C772.589 2.77386 766.145 -35.0751 760.894 -65.9221L760.893 -65.9231C759.483 -74.2071 758.159 -81.9851 757.234 -89.5881C755.042 -107.592 755.102 -124.582 761.641 -144.77C768.165 -164.917 781.11 -188.153 804.519 -218.734L804.52 -218.736C855.03 -284.574 834.955 -363.552 784.518 -418.615C734.053 -473.708 653.673 -504.302 584.355 -473.655C551.236 -458.362 525.933 -455.278 504.76 -458.224C484.023 -461.108 467.383 -469.766 451.486 -478.037L451.485 -478.038L450.578 -478.51C434.349 -486.951 418.865 -494.843 400.208 -496.198C381.603 -497.549 359.642 -492.401 330.564 -474.277C291.427 -449.874 274.38 -413.606 257.222 -377.105L257.176 -377.007C256.73 -376.058 256.285 -375.109 255.838 -374.161C238.233 -336.751 219.893 -299.461 176.571 -276.165L176.563 -276.161L176.554 -276.157C113.515 -243.257 67.482 -182.917 55.707 -123.413C49.824 -93.6831 52.499 -64.2161 65.8 -38.4611Z" fill="url(#paint0_linear_103_67)"/>
<defs>
<linearGradient id="paint0_linear_103_67" x1="317.968" y1="-6.99999" x2="317.968" y2="477" gradientUnits="userSpaceOnUse">
<stop stop-color="#38373C" stop-opacity="0.4"/>
<stop offset="0.911458" stop-color="#38373C" stop-opacity="0"/>
</linearGradient>
</defs>
</svg>
