<svg width="1508" height="420" viewBox="0 0 1508 420" fill="none" xmlns="http://www.w3.org/2000/svg">
<path fill-rule="evenodd" clip-rule="evenodd" d="M330.893 -978.839C221.65 -910.69 190.32 -817.439 164.355 -727.879C162.979 -723.132 161.618 -718.396 160.261 -713.676L160.24 -713.603L160.238 -713.597C135.987 -629.216 113.147 -549.741 30.6539 -498.199C-126.236 -409.171 -267.276 -266.53 -314.906 -123.228C-338.736 -51.5261 -339.196 20.4209 -306.446 85.8608C-273.696 151.281 -207.846 209.971 -99.506 255.381C70.584 326.681 181.646 351.511 263.285 369.751C294.046 376.631 320.629 382.571 344.618 389.711C388.419 402.751 423.669 419.801 460.206 453.861C496.793 487.971 534.723 539.181 583.764 620.661C682.4 784.541 882.502 811.281 1058.61 746.791C1234.73 682.291 1387.58 526.331 1391.88 323.871C1395.03 175.711 1378.39 82.351 1365.67 10.9809L1365.67 10.9709C1361.07 -14.8541 1356.98 -37.7961 1354.53 -59.4111C1349.91 -100.07 1351.07 -136.105 1365.38 -178.026C1379.71 -219.996 1407.26 -267.954 1455.6 -332.387C1504.29 -397.282 1516.58 -479.285 1502.44 -562.465C1488.29 -645.64 1447.7 -730.098 1390.46 -800.094C1276.03 -940.023 1094.53 -1022.65 924.267 -920.641C839.792 -870.028 774.295 -856.913 720.202 -863.407C666.08 -869.904 623.141 -896.052 583.784 -924.454C575.495 -930.435 567.337 -936.539 559.264 -942.578L559.256 -942.583L559.249 -942.589L559.242 -942.594L559.234 -942.6L559.226 -942.605L559.219 -942.611L559.211 -942.617L559.203 -942.623C548.196 -950.857 537.349 -958.972 526.551 -966.492C507.759 -979.579 488.898 -991.031 469.05 -998.571C449.183 -1006.12 428.328 -1009.74 405.562 -1007.18C382.805 -1004.62 358.226 -995.89 330.893 -978.839ZM32.224 -495.638C115.735 -547.807 138.875 -628.358 163.06 -712.551L163.065 -712.568C164.448 -717.383 165.835 -722.209 167.236 -727.044C193.17 -816.495 224.246 -908.774 332.481 -976.294C359.517 -993.159 383.673 -1001.7 405.898 -1004.2C428.115 -1006.7 448.49 -1003.17 467.984 -995.766C487.497 -988.354 506.125 -977.061 524.836 -964.03C535.646 -956.501 546.411 -948.447 557.381 -940.24L557.382 -940.238C565.454 -934.199 573.636 -928.078 582.028 -922.021C621.487 -893.546 664.94 -867.02 719.844 -860.429C774.775 -853.834 840.937 -867.217 925.809 -918.068C1094.24 -1018.98 1274.18 -937.547 1388.14 -798.195C1445.09 -728.55 1485.43 -644.563 1499.48 -561.962C1513.53 -479.365 1501.27 -398.259 1453.2 -334.187C1404.78 -269.652 1377.02 -221.4 1362.54 -178.996C1348.05 -136.543 1346.9 -100.039 1351.55 -59.0731C1354.02 -37.2481 1358.13 -14.1771 1362.75 11.7409C1375.47 83.0809 1392.03 175.981 1388.88 323.811C1384.61 524.681 1232.91 679.761 1057.57 743.971C882.216 808.191 683.941 781.281 586.334 619.111C537.254 537.571 499.151 486.061 462.252 451.671C425.302 417.221 389.611 399.981 345.474 386.841C321.267 379.631 294.549 373.661 263.686 366.761C182.07 348.521 71.4639 323.801 -98.3461 252.621C-206.256 207.381 -271.426 149.101 -303.756 84.5209C-336.086 19.9509 -335.696 -51.1481 -312.056 -122.281C-264.746 -264.64 -124.366 -406.792 32.1639 -495.605L32.194 -495.621L32.224 -495.638ZM363.245 -918.743C262.521 -855.91 232.957 -769.508 208.036 -686.466C206.818 -682.409 205.612 -678.36 204.409 -674.323L204.407 -674.317C180.968 -595.66 158.851 -521.442 81.306 -473.429C-63.926 -391.376 -193.176 -258.942 -236.346 -125.993C-257.956 -59.4691 -258.026 7.26593 -227.656 67.8409C-197.286 128.391 -136.596 182.571 -37.116 224.211C118.442 289.281 220.927 312.951 296.573 330.421C326.023 337.221 351.405 343.081 374.267 350.081C415.044 362.571 447.914 378.681 481.859 410.201C515.851 441.771 550.973 488.851 596.138 563.381L596.142 563.391C688.975 714.881 874.187 739.501 1037.07 679.831C1199.97 620.151 1341.24 475.941 1346.37 288.851C1350.14 151.281 1334.77 64.751 1322.99 -1.54108L1322.99 -1.54211V-1.54413L1322.99 -1.55811L1322.99 -1.56708C1318.81 -25.0951 1315.08 -46.0751 1312.83 -65.8841C1308.52 -103.674 1309.54 -137.27 1322.86 -176.409C1336.19 -215.594 1361.89 -260.424 1407.1 -320.609C1452.94 -381.603 1464.66 -457.983 1451.64 -535.208C1438.63 -612.426 1400.87 -690.583 1347.59 -755.314C1241.09 -884.714 1072.05 -960.951 914.204 -867.761L914.203 -867.76C836.197 -821.587 775.801 -809.749 725.912 -815.787C675.995 -821.829 636.371 -845.789 599.911 -871.692C592.733 -876.792 585.67 -881.974 578.671 -887.11L578.601 -887.161L578.588 -887.171L578.574 -887.181C550.164 -908.029 522.808 -928.103 493.091 -938.802C455.805 -952.226 414.83 -950.921 363.245 -918.743ZM82.86 -470.863C161.421 -519.491 183.843 -594.765 207.215 -673.233C208.441 -677.349 209.67 -681.473 210.909 -685.604C235.803 -768.553 265.109 -853.989 364.832 -916.198C415.709 -947.934 455.728 -949.065 492.075 -935.979C521.342 -925.442 548.245 -905.705 576.62 -884.889C583.693 -879.7 590.859 -874.444 598.174 -869.246C634.729 -843.275 674.862 -818.944 725.552 -812.809C776.27 -806.67 837.328 -818.77 915.731 -865.178C1071.77 -957.298 1239.25 -882.229 1345.28 -753.408C1398.26 -689.029 1435.77 -611.346 1448.68 -534.71C1461.6 -458.08 1449.93 -382.59 1404.71 -322.411C1359.41 -262.121 1333.5 -216.997 1320.02 -177.375C1306.52 -137.706 1305.51 -103.641 1309.85 -65.5441C1312.13 -45.5302 1315.88 -24.4221 1320.07 -0.797119L1320.07 -0.794128V-0.793091C1331.84 65.4709 1347.13 151.541 1343.37 288.771C1338.29 474.281 1198.15 617.621 1036.04 677.011C873.912 736.411 690.508 711.631 598.704 561.831C553.497 487.231 518.203 439.861 483.901 408.011C449.551 376.101 416.25 359.801 375.146 347.221C352.052 340.151 326.531 334.251 296.976 327.431C221.361 309.961 119.345 286.401 -35.9561 221.441C-135.006 179.981 -195.026 126.221 -224.976 66.4908C-254.916 6.78082 -254.916 -59.1101 -233.496 -125.066C-190.626 -257.068 -62.046 -389.002 82.808 -470.832L82.835 -470.847L82.86 -470.863ZM295.407 -603.648C318.239 -673.651 344.27 -746.352 427.955 -798.553C473.228 -826.789 508.968 -829.276 541.168 -819.268C567.856 -810.972 592.055 -794.084 617.082 -776.619C622.069 -773.139 627.089 -769.635 632.168 -766.173C662.835 -745.265 695.831 -725.679 737.341 -720.548C741.518 -720.032 745.783 -719.662 750.142 -719.452L672.666 -698.172C693.626 -686.108 716.394 -676.267 743.059 -672.925C780.337 -668.254 825.438 -676.265 884.032 -709.12L884.039 -709.124C1004.64 -775.84 1136.27 -718.79 1218.99 -620.978C1301.67 -523.205 1336.17 -383.87 1261.63 -285.273C1225.8 -237.832 1205.67 -202.388 1195.31 -171.555C1184.97 -140.768 1184.36 -114.489 1187.75 -85.3011C1189.42 -70.8541 1192.08 -55.6821 1195.02 -38.9061C1203.98 12.1808 1215.55 78.1409 1209.85 183.801C1202.25 324.751 1095.72 433.711 972.482 478.951C849.25 524.191 708.721 505.911 633.296 391.581L633.286 391.561L633.276 391.551C599.74 337.881 573.041 303.201 546.833 279.241C520.662 255.311 494.925 242.011 463.217 231.201C443.402 224.441 421.33 218.671 395.375 211.881C379.662 207.771 362.525 203.291 343.605 197.991C293.501 183.971 231.111 164.271 150.088 130.701H150.086C77.164 100.371 31.934 59.7208 8.724 13.7609C-14.496 -32.2042 -15.606 -83.2841 -0.686035 -134.274C29.134 -236.168 122.989 -337.987 233.272 -399.122C296.061 -436.562 316.094 -495.066 337.147 -556.551L337.738 -558.274L338.425 -560.28C338.649 -560.933 338.873 -561.587 339.097 -562.24C344.727 -578.644 350.522 -595.206 357.318 -611.558L295.623 -594.613C273.855 -527.597 252.827 -462.862 184.145 -421.313L184.123 -421.299L184.1 -421.286C62.594 -353.426 -42.396 -241.93 -76.366 -130.642C-93.346 -75.0401 -92.576 -19.5641 -67.396 30.4309C-42.206 80.4409 7.51398 125.191 88.839 159.101C214.937 211.541 299.621 232.681 363.133 248.531C390.259 255.301 413.523 261.101 434.502 267.971C469.539 279.451 498.058 293.871 527.204 320.681C556.308 347.461 585.984 386.541 623.441 447.241C703.638 572.331 857.311 592.861 992.977 543.091C1128.64 493.331 1245.65 373.481 1252.36 218.681C1257.38 102.721 1244.63 30.3508 1234.74 -25.7741C1231.38 -44.8641 1228.35 -62.0771 1226.46 -78.4881C1222.73 -110.846 1223.47 -140.032 1234.98 -174.134C1246.48 -208.191 1268.69 -247.06 1307.72 -298.861C1386.75 -403.631 1349.75 -556.025 1259.55 -663.833C1169.4 -771.59 1026.81 -833.929 895.573 -759.396L883.393 -756.05C886.912 -757.949 890.476 -759.932 894.085 -762.001L894.09 -762.004C1027.11 -837.548 1171.21 -774.099 1261.85 -665.758C1352.46 -557.466 1390.37 -403.451 1310.12 -297.054C1271.16 -245.365 1249.17 -206.792 1237.83 -173.175C1226.49 -139.604 1225.75 -110.886 1229.44 -78.8311C1231.31 -62.6021 1234.32 -45.5041 1237.67 -26.4961C1247.56 29.6509 1260.4 102.481 1255.36 218.811C1248.58 375.141 1130.47 495.851 994.01 545.911C857.562 595.961 702.136 575.561 620.908 448.841L620.901 448.831L620.894 448.821C583.482 388.201 553.975 349.391 525.173 322.891C496.412 296.431 468.298 282.201 433.568 270.821C412.86 264.041 389.749 258.271 362.735 251.531C299.165 235.661 213.988 214.391 87.686 161.871C5.90497 127.771 -44.476 82.6108 -70.076 31.7809C-95.6761 -19.0511 -96.386 -75.3511 -79.236 -131.518C-44.976 -243.764 60.684 -355.786 182.615 -423.893C250.305 -464.854 271.013 -528.584 292.852 -595.793L292.865 -595.834C293.71 -598.434 294.556 -601.039 295.407 -603.648ZM750.142 -719.452C786.679 -717.691 829.865 -727.168 883.393 -756.05L750.142 -719.452ZM360.995 -612.568C353.851 -595.624 347.812 -578.392 341.935 -561.267C341.598 -560.284 341.261 -559.302 340.925 -558.321C340.591 -557.347 340.258 -556.373 339.924 -555.399L339.909 -555.355L339.894 -555.311C318.913 -494.021 298.553 -434.545 234.788 -396.533L234.768 -396.521L234.747 -396.509C124.925 -335.636 31.724 -234.362 2.19397 -133.431C-12.556 -83.0051 -11.4061 -32.7361 11.4039 12.4109C34.2039 57.5609 78.774 97.7909 151.238 127.931C232.131 161.441 294.405 181.101 344.413 195.111C363.19 200.361 380.27 204.831 395.97 208.931H395.971C422.025 215.751 444.28 221.571 464.186 228.361C496.189 239.271 522.314 252.751 548.858 277.021C575.362 301.261 602.228 336.201 635.81 389.941C710.206 502.691 849.015 521.081 971.448 476.131C1093.88 431.191 1199.34 323.081 1206.85 183.641C1212.53 78.3608 1201.05 12.8709 1192.1 -38.1941V-38.1971L1192.1 -38.1981V-38.2001L1192.09 -38.2011C1189.14 -55.0551 1186.46 -70.3361 1184.77 -84.9561C1181.35 -114.444 1181.95 -141.191 1192.47 -172.51C1202.97 -203.784 1223.32 -239.526 1259.23 -287.082C1332.56 -384.062 1298.95 -521.775 1216.69 -619.041C1134.47 -716.265 1004.34 -772.244 885.496 -706.501C826.5 -673.422 780.757 -665.177 742.686 -669.948C714.403 -673.493 690.47 -684.21 668.612 -697.059L624.74 -685.009C635.542 -679.174 646.089 -672.342 656.781 -665.416C659.709 -663.52 662.647 -661.616 665.605 -659.724C690.485 -643.808 716.854 -628.592 749.965 -624.372C783.043 -620.156 823.047 -626.894 875.17 -655.31L875.181 -655.316C983.359 -713.2 1102.51 -662.552 1177.3 -575.269C1252.07 -488.014 1283.16 -363.359 1214.33 -272.563C1181.63 -229.369 1163.35 -197.054 1153.99 -169.006C1144.64 -141.003 1144.16 -117.163 1147.24 -90.8421C1148.72 -78.1651 1151.04 -64.9021 1153.58 -50.3291L1153.58 -50.3281C1161.6 -4.30811 1171.9 54.771 1165.53 149.721C1157.11 275.291 1062.16 372.491 952.141 412.921C842.125 453.351 716.496 437.181 646.875 335.251L646.861 335.231L646.847 335.211C617.188 288.491 593.297 257.941 569.682 236.521C546.099 215.121 522.738 202.761 494.051 192.501C475.128 185.731 453.955 179.891 428.881 172.981C415.827 169.381 401.717 165.491 386.317 161.031C341.39 148.011 285.674 130.141 213.678 100.461H213.675C149.6 73.9009 109.535 37.7609 88.703 -3.3291C67.874 -44.4251 66.374 -90.2841 79.064 -136.095C104.416 -227.638 186.481 -319.256 285.12 -373.422C343.031 -407.346 362.418 -460.64 382.701 -516.4L383.304 -518.059L383.977 -519.907C398.442 -559.633 413.764 -600.351 444.322 -635.455L360.995 -612.568ZM620.526 -683.851L449.634 -636.914C417.449 -601.531 401.737 -559.915 386.796 -518.881C386.355 -517.668 385.914 -516.456 385.473 -515.245L385.417 -515.091C365.209 -459.527 345.487 -405.299 286.618 -370.822L286.6 -370.812L286.582 -370.802C188.443 -316.916 107.038 -225.867 81.951 -135.294C69.414 -90.0432 70.954 -44.9791 91.379 -4.6861C111.807 35.611 151.226 71.3309 214.824 97.6909C286.698 127.321 342.307 145.151 387.152 158.151C402.437 162.581 416.494 166.451 429.528 170.051H429.529C454.686 176.981 476.036 182.871 495.061 189.671C524.029 200.031 547.759 212.571 571.698 234.291C595.602 255.991 619.659 286.781 649.367 333.581C717.96 433.981 841.908 450.241 951.107 410.111C1060.31 369.971 1154.22 273.611 1162.54 149.521C1168.88 54.9708 1158.66 -3.64307 1150.65 -49.6421L1150.65 -49.6451C1148.09 -64.2891 1145.76 -77.6551 1144.26 -90.4931C1141.15 -117.111 1141.62 -141.419 1151.14 -169.955C1160.65 -198.447 1179.15 -231.062 1211.93 -274.374H1211.94C1279.55 -363.565 1249.33 -486.595 1175.03 -573.317C1100.74 -660.01 983.053 -709.631 876.599 -652.672C824.073 -624.039 783.437 -617.081 749.586 -621.396C715.766 -625.707 688.915 -641.251 663.988 -657.197C661.012 -659.101 658.065 -661.009 655.139 -662.903L655.138 -662.904L655.135 -662.906C643.473 -670.457 632.131 -677.801 620.526 -683.851ZM160.204 -136.806C181.101 -217.998 251.37 -299.42 338.37 -346.618C391.441 -377.034 410.221 -425.142 429.753 -475.174L430.262 -476.476C449.952 -526.905 470.689 -579.047 528.805 -615.292C564.593 -637.605 592.458 -641.862 617.007 -636.999C639.31 -632.581 658.738 -620.642 678.63 -608.418L678.698 -608.376C680.564 -607.23 682.434 -606.081 684.31 -604.935C706.301 -591.513 729.358 -578.48 758.274 -574.714C787.154 -570.953 822.062 -576.421 867.715 -600.399L867.722 -600.402L867.729 -600.406C963.482 -649.452 1070.16 -605.212 1137.02 -528.457C1203.88 -451.715 1231.55 -341.741 1168.43 -258.747C1138.86 -219.802 1122.43 -190.615 1114.06 -165.352C1105.71 -140.133 1105.37 -118.732 1108.14 -95.2781C1109.43 -84.3561 1111.4 -72.9811 1113.55 -60.5751C1120.64 -19.6132 1129.68 32.5808 1122.62 116.751C1113.37 226.931 1030 312.381 933.203 348.001C836.401 383.621 725.675 369.551 661.86 280.031L661.841 280.001L661.823 279.971C636.041 240.211 614.957 213.801 593.934 194.901C572.938 176.031 551.949 164.601 526.282 154.901C508.094 148.021 487.614 142.031 463.12 134.851H463.119C452.954 131.881 442.097 128.701 430.427 125.171C390.679 113.151 341.638 97.131 278.67 71.3309H278.667C223.44 48.5409 188.534 16.9109 170.088 -19.3171C151.641 -55.5391 149.746 -96.1751 160.204 -136.806ZM279.809 68.5509C225.08 45.9709 190.809 14.7609 172.761 -20.6781C154.712 -56.1211 152.794 -95.9831 163.109 -136.058C183.755 -216.274 253.367 -297.095 339.816 -343.989L339.831 -343.997L339.847 -344.006C393.851 -374.95 412.977 -423.946 432.431 -473.783L433.056 -475.385C452.758 -525.845 473.207 -577.082 530.393 -612.747C565.683 -634.75 592.78 -638.74 616.424 -634.056C638.17 -629.749 657.136 -618.099 677.123 -605.822C678.988 -604.677 680.861 -603.526 682.747 -602.375C704.762 -588.938 728.29 -575.594 757.886 -571.74C787.517 -567.881 823.046 -573.55 869.104 -597.739C963.17 -645.916 1068.42 -602.647 1134.76 -526.487C1201.12 -450.313 1227.95 -341.965 1166.04 -260.562L1166.04 -260.561C1136.38 -221.494 1119.73 -192.005 1111.22 -166.295C1102.69 -140.542 1102.36 -118.674 1105.16 -94.9261C1106.47 -83.8571 1108.45 -72.3881 1110.61 -59.9191L1110.61 -59.9101L1110.62 -59.9071C1117.7 -18.9661 1126.66 32.7509 1119.63 116.501C1110.5 225.251 1028.15 309.871 932.167 345.181C836.206 380.501 727.114 366.371 664.322 278.311C638.488 238.471 617.241 211.811 595.94 192.671C574.607 173.491 553.273 161.901 527.343 152.091C509.042 145.171 488.396 139.131 463.842 131.941H463.838H463.836L463.805 131.931C453.67 128.961 442.87 125.801 431.295 122.301C391.613 110.301 342.667 94.3109 279.809 68.5509ZM391.706 -319.757C316.335 -279.523 257.864 -208.291 241.428 -137.45C233.203 -102 235.496 -66.5901 251.553 -35.2441C267.614 -3.89307 297.36 23.2308 343.741 42.2509H343.745C397.683 64.1709 440.047 78.3608 474.614 89.3708C482.17 91.7709 489.348 94.0309 496.189 96.1709H496.191L496.201 96.1809C520.681 103.861 540.847 110.191 558.588 117.361C581.238 126.511 599.857 137.001 618.269 153.341C636.702 169.711 654.979 191.991 676.882 224.801L676.906 224.841L676.931 224.871C734.939 301.981 830.755 313.951 914.346 283.141C997.922 252.331 1069.7 178.641 1079.78 83.851C1087.58 10.5309 1079.79 -34.7561 1073.62 -70.6671L1073.62 -70.6701C1071.85 -80.9551 1070.22 -90.4711 1069.12 -99.6571C1066.65 -120.245 1066.86 -139.207 1074.22 -161.642C1081.59 -184.119 1096.17 -210.176 1122.61 -244.872C1180.02 -320.06 1155.77 -415.357 1096.82 -481.59C1037.88 -547.817 943.687 -585.641 860.367 -545.441L860.358 -545.436L860.349 -545.432C821.167 -525.89 791.351 -521.692 766.665 -524.998C741.94 -528.309 722.193 -539.162 703.088 -550.093L701.915 -550.764L700.573 -551.533C682.416 -561.94 664.599 -572.151 643.671 -575.139C621.684 -578.278 596.453 -573.435 563.834 -553.101C514.583 -522.387 495.53 -477.508 477.013 -433.89L476.632 -432.994C457.964 -389.025 439.646 -346.484 391.706 -319.757ZM254.224 -36.6121C269.894 -6.02209 299.019 20.6709 344.877 39.4709C398.718 61.351 441.003 75.5109 475.525 86.5109C483.037 88.9009 490.188 91.1409 497.013 93.2909H497.016H497.019C521.527 100.981 541.848 107.361 559.712 114.581C582.603 123.821 601.537 134.481 620.261 151.101C638.958 167.701 657.393 190.211 679.354 223.101C736.346 298.831 830.586 310.811 913.309 280.321C996.06 249.821 1066.86 176.941 1076.8 83.5309C1084.55 10.6709 1076.85 -34.1321 1070.68 -70.0211L1070.68 -70.0261L1070.68 -70.0321C1068.91 -80.3761 1067.26 -89.9791 1066.14 -99.3011C1063.64 -120.177 1063.84 -139.606 1071.37 -162.577C1078.89 -185.504 1093.69 -211.867 1120.22 -246.691L1120.22 -246.692C1176.43 -320.31 1152.98 -413.974 1094.58 -479.596C1036.17 -545.223 943.365 -582.149 861.679 -542.743C822.091 -523 791.672 -518.622 766.267 -522.025C740.899 -525.422 720.695 -536.563 701.598 -547.489C700.811 -547.939 700.025 -548.389 699.242 -548.838C680.948 -559.32 663.59 -569.265 643.247 -572.169C622.128 -575.184 597.604 -570.617 565.421 -550.555C516.977 -520.344 498.248 -476.231 479.67 -432.473L479.394 -431.822C460.756 -387.925 442.11 -344.418 393.154 -317.13L393.142 -317.123L393.13 -317.117C318.379 -277.217 260.559 -206.631 244.35 -136.772C236.253 -101.871 238.55 -67.2091 254.224 -36.6121ZM404.264 -138.389C411.759 -188.516 446.62 -239.414 498.783 -265.74C535.563 -284.577 553.23 -314.868 569.792 -345.769C570.769 -347.592 571.742 -349.417 572.715 -351.241C588.198 -380.28 603.695 -409.345 634.285 -428.415C660.554 -444.784 680.489 -450.781 697.31 -451.103C714.128 -451.426 727.645 -446.068 740.974 -440.13C741.393 -439.943 741.813 -439.756 742.232 -439.568C742.545 -439.428 742.859 -439.287 743.172 -439.146C743.854 -438.839 744.536 -438.532 745.218 -438.225C757.162 -432.842 769.207 -427.413 783.85 -425.262C800.172 -422.864 819.816 -424.537 846.058 -435.215L846.072 -435.22L846.085 -435.225C904.497 -457.692 973.695 -432.739 1016.8 -387.568C1038.38 -364.954 1053.52 -337.177 1057.51 -307.564C1061.5 -277.917 1054.29 -246.534 1031.36 -216.819C1011.19 -190.623 1000.32 -170.827 994.933 -153.922C989.562 -137.056 989.619 -122.971 991.47 -108.115C992.194 -102.303 993.195 -96.3691 994.25 -90.1101C998.611 -64.2571 1003.91 -32.8591 994.491 18.3909C982.741 82.3508 934.169 132.531 877.028 153.711C819.849 174.911 753.879 167.131 707.499 114.891L707.457 114.841L707.42 114.791C679.167 77.0409 656.747 58.621 623.566 42.5609C606.924 34.5109 587.565 27.0509 563.357 18.0509C558.752 16.3409 553.972 14.5709 549.004 12.7409H549.002C527.871 4.92688 503.33 -4.1441 474.295 -15.5911L474.287 -15.5941C445.579 -27.0851 426.161 -45.2031 414.881 -66.7931C403.609 -88.3681 400.514 -113.309 404.264 -138.389ZM475.399 -18.3801C447.302 -29.6281 428.462 -47.2791 417.54 -68.1831C406.609 -89.1031 403.559 -113.383 407.231 -137.945C414.581 -187.102 448.834 -237.172 500.138 -263.064L500.146 -263.068C537.827 -282.365 555.861 -313.427 572.436 -344.352L572.8 -345.032L573.12 -345.63L573.631 -346.586L573.897 -347.083C574.36 -347.95 574.822 -348.817 575.284 -349.683C590.845 -378.852 605.988 -407.239 635.872 -425.869C661.851 -442.058 681.258 -447.795 697.368 -448.104C713.481 -448.413 726.482 -443.302 739.753 -437.39C741.161 -436.763 742.572 -436.126 743.99 -435.487L743.991 -435.486C755.904 -430.114 768.332 -424.509 783.414 -422.294C800.345 -419.806 820.526 -421.59 847.174 -432.43C904.144 -454.335 972.108 -430.056 1014.63 -385.497C1035.86 -363.245 1050.65 -336.029 1054.53 -307.163C1058.42 -278.331 1051.44 -247.749 1028.98 -218.651L1028.98 -218.649C1008.7 -192.31 997.605 -172.198 992.074 -154.832C986.531 -137.426 986.608 -122.876 988.493 -107.744C989.23 -101.824 990.242 -95.8201 991.304 -89.5161C995.654 -63.6981 1000.85 -32.8411 991.54 17.851C980.007 80.631 932.274 130.031 875.985 150.901C819.75 171.741 755.187 164.051 709.784 112.951C681.304 74.8909 658.531 56.1509 624.872 39.8608C608.086 31.7408 588.602 24.231 564.402 15.2409C559.79 13.5209 555.006 11.7609 550.035 9.9209C528.906 2.1109 504.4 -6.94714 475.399 -18.3801ZM552.678 -238.486C512.057 -219.093 489.031 -178.301 486.024 -138.556C483.016 -98.8011 500.045 -59.7561 539.912 -44.2611L539.92 -44.2581C647.232 -3.25012 682.099 12.371 723.071 60.0909L723.113 60.1409L723.158 60.1809C763.705 99.9509 814.733 105.641 858.712 89.2509C902.641 72.8708 939.587 34.4609 952.174 -14.0331C962.534 -53.9501 958.458 -78.3641 954.975 -99.2291C954.239 -103.638 953.529 -107.889 952.988 -112.094C951.444 -124.087 951.254 -135.733 955.632 -149.813C960.023 -163.93 969.038 -180.595 986.078 -202.538C1006.13 -228.32 1012.79 -254.071 1009.93 -277.79C1007.07 -301.478 994.737 -322.969 977.113 -340.319C941.92 -374.962 885.249 -393.444 839.344 -379.879L839.33 -379.875L839.317 -379.871C819.539 -373.615 804.962 -373.193 792.795 -375.14C783.708 -376.594 775.98 -379.353 768.288 -382.1L768.287 -382.101L768.284 -382.102L768.283 -382.103C765.599 -383.061 762.918 -384.018 760.186 -384.917C749.671 -388.379 738.646 -390.869 724.407 -388.811C710.207 -386.759 692.939 -380.202 669.854 -365.82L670.6 -364.622L669.853 -365.82C648.491 -352.508 635.269 -331.434 621.707 -309.817C620.062 -307.195 618.412 -304.566 616.742 -301.94C601.239 -277.574 583.895 -253.389 552.678 -238.486ZM489.016 -138.33C486.079 -99.5111 502.684 -61.9511 540.995 -47.0591C648.218 -6.08508 683.795 9.75696 725.305 58.0809C764.929 96.9209 814.678 102.461 857.664 86.4409C900.718 70.3909 936.94 32.7208 949.27 -14.7861C959.461 -54.0501 955.493 -77.8521 952.024 -98.6661C951.283 -103.11 950.565 -107.418 950.012 -111.711C948.434 -123.969 948.22 -136.08 952.768 -150.704C957.304 -165.291 966.547 -182.279 983.708 -204.378L983.709 -204.379C1003.34 -229.616 1009.71 -254.592 1006.95 -277.431C1004.19 -300.299 992.264 -321.194 975.008 -338.181C940.442 -372.207 884.872 -390.197 840.208 -377.006C820.033 -370.626 804.987 -370.151 792.321 -372.178C782.94 -373.679 774.847 -376.569 767.091 -379.338L767.087 -379.34L767.082 -379.342C764.444 -380.285 761.845 -381.213 759.248 -382.067C748.965 -385.452 738.44 -387.808 724.836 -385.842C711.193 -383.87 694.325 -377.531 671.44 -363.274C650.704 -350.352 637.864 -329.902 624.24 -308.206C622.601 -305.595 620.95 -302.966 619.273 -300.33C603.722 -275.889 585.998 -251.069 553.971 -235.778C514.453 -216.912 491.953 -177.16 489.016 -138.33ZM568.201 -138.357C566.705 -167.634 577.797 -198.462 607.003 -210.955C632.673 -221.935 649.703 -240.031 664.142 -257.868C666.985 -261.38 669.745 -264.905 672.454 -268.365C676.582 -273.638 680.593 -278.759 684.601 -283.458C691.27 -291.275 698.095 -298.124 705.828 -302.94C745.614 -327.715 764.146 -331.335 779.66 -329.428C784.282 -328.86 788.514 -327.842 792.885 -326.791L792.886 -326.79H792.888L792.89 -326.789C803.207 -324.307 814.299 -321.639 833.114 -324.256C866.409 -328.887 910.516 -316.914 937.808 -292.806C951.486 -280.723 961.033 -265.507 962.759 -247.716C964.486 -229.915 958.359 -209.797 941.2 -187.969C927.296 -170.282 920.137 -156.751 916.74 -145.423C913.353 -134.13 913.674 -124.923 914.912 -115.791C915.269 -113.152 915.709 -110.493 916.159 -107.779L916.162 -107.761V-107.757L916.163 -107.756C917.258 -101.142 918.407 -94.2041 918.549 -86.4451C918.751 -75.3931 916.935 -62.5871 910.224 -46.0911C896.816 -13.1301 871.522 13.5109 840.805 25.0709C810.022 36.6609 773.953 33.0509 739.277 5.79187C736.714 3.77789 734.045 1.63989 731.246 -0.602112C705.889 -20.9131 669.849 -49.7791 605.967 -72.6341C594.831 -76.6181 585.762 -85.8021 579.31 -97.5351C572.853 -109.278 568.95 -123.688 568.201 -138.357ZM581.939 -98.9801C588.161 -87.6641 596.74 -79.1221 606.977 -75.4591C671.344 -52.4311 707.722 -23.2902 733.115 -2.95013L733.126 -2.9411C735.919 -0.703125 738.58 1.42792 741.131 3.43292C775.025 30.0809 809.997 33.4708 839.748 22.2609C869.567 11.0409 894.303 -14.9131 907.445 -47.2211C914.01 -63.3591 915.744 -75.7621 915.549 -86.3901C915.412 -93.9202 914.319 -100.515 913.237 -107.043C912.777 -109.815 912.32 -112.574 911.939 -115.388C910.668 -124.769 910.314 -134.441 913.866 -146.285C917.408 -158.095 924.8 -171.961 938.842 -189.823C955.662 -211.22 961.406 -230.591 959.773 -247.426C958.139 -264.27 949.093 -278.834 935.822 -290.558C909.214 -314.061 865.993 -325.801 833.528 -321.285C814.126 -318.586 802.19 -321.448 791.705 -323.961L791.701 -323.962C787.461 -324.979 783.458 -325.938 779.294 -326.45C764.815 -328.23 747.018 -325.055 707.414 -300.393C700.07 -295.82 693.481 -289.244 686.883 -281.511C682.9 -276.842 678.973 -271.825 674.887 -266.605L674.885 -266.603L674.884 -266.602C672.171 -263.136 669.389 -259.582 666.473 -255.98C651.942 -238.029 634.536 -219.469 608.183 -208.196C580.578 -196.388 569.737 -167.098 571.197 -138.51C571.925 -124.246 575.722 -110.286 581.939 -98.9801ZM395.599 -858.648C303.394 -801.131 275.598 -721.579 251.721 -645.056C250.678 -641.713 249.642 -638.377 248.61 -635.049C225.975 -562.116 204.57 -493.146 131.96 -448.661C-1.62604 -373.582 -119.076 -251.355 -157.796 -128.757C-177.176 -67.4111 -176.856 -5.8941 -148.866 49.8109C-120.876 105.501 -65.3461 155.171 25.2839 193.041C166.253 251.851 260.114 274.341 329.74 291.021C357.934 297.771 382.154 303.581 403.919 310.451C441.672 322.381 472.163 337.551 503.516 366.551C534.912 395.581 567.227 438.521 608.516 506.101L608.52 506.111H608.524C695.555 645.221 865.875 667.731 1015.54 612.871C1165.22 558.001 1294.91 425.541 1300.86 253.831C1305.26 126.861 1291.16 47.1809 1280.33 -14.0361V-14.0381C1276.57 -35.3021 1273.2 -54.3391 1271.13 -72.3571C1267.13 -107.28 1268.02 -138.437 1280.34 -174.792C1292.68 -211.193 1316.53 -252.895 1358.61 -308.832C1444.57 -423.027 1403.25 -591.723 1304.72 -710.536C1206.15 -829.406 1049.58 -899.25 904.146 -814.882L904.143 -814.88C832.608 -773.147 777.31 -762.585 731.626 -768.168C685.913 -773.754 649.603 -795.526 616.041 -818.932C609.899 -823.215 603.842 -827.558 597.834 -831.868L597.831 -831.87L597.828 -831.872C571.106 -851.037 545.328 -869.525 517.132 -879.034C482.388 -890.752 444.03 -888.856 395.599 -858.648ZM133.503 -446.088C207.118 -491.177 228.835 -561.178 251.401 -633.92L251.409 -633.947C252.464 -637.347 253.521 -640.753 254.585 -644.162C278.438 -720.61 305.974 -799.204 397.187 -856.103C444.941 -885.889 482.371 -887.592 516.173 -876.192C543.902 -866.84 569.226 -848.683 595.929 -829.538L595.939 -829.531L595.949 -829.523C601.989 -825.193 608.1 -820.812 614.325 -816.471C647.974 -793.005 684.788 -770.869 731.262 -765.19C777.766 -759.507 833.72 -770.323 905.654 -812.289C1049.29 -895.613 1204.32 -826.91 1302.41 -708.621C1400.55 -590.273 1440.95 -423.197 1356.21 -310.636C1314.05 -254.591 1289.99 -212.594 1277.5 -175.755C1265 -138.869 1264.12 -107.244 1268.15 -72.0161C1270.24 -53.8071 1273.63 -34.6521 1277.41 -13.3041V-13.3021C1288.23 47.8909 1302.25 127.111 1297.86 253.731C1291.97 423.881 1163.39 555.471 1014.51 610.051C865.611 664.631 697.072 641.981 611.072 504.531C569.74 436.891 537.256 393.661 505.553 364.341C473.804 334.991 442.894 319.621 404.822 307.591C382.81 300.641 358.445 294.801 330.144 288.021C260.559 271.351 167.175 248.981 26.444 190.271C-63.746 152.581 -118.616 103.331 -146.186 48.4609C-173.746 -6.39105 -174.136 -67.0741 -154.936 -127.853C-116.516 -249.498 0.273987 -371.214 133.454 -446.06L133.479 -446.073L133.503 -446.088ZM445.158 -292.812C381.404 -259.536 334.734 -198.482 322.764 -137.995C316.775 -107.728 319.467 -77.5491 333.134 -51.0851C346.806 -24.6101 371.39 -1.99213 408.93 13.2609L408.936 13.2709C453.84 31.2909 489.525 43.6409 518.909 53.6509C521.527 54.5409 524.094 55.4109 526.613 56.2609L526.617 56.2709H526.62C552.389 65.0209 573.084 72.0509 591 79.9009C630.177 97.0509 656.058 118.071 692.062 169.721L692.092 169.771L692.125 169.811C744.323 234.491 825.221 244.361 895.604 218.361C965.962 192.361 1026.14 130.431 1037.06 51.0509C1045.63 -11.3161 1039.1 -49.6711 1033.84 -80.5431L1033.83 -80.5491C1032.43 -88.7761 1031.12 -96.4731 1030.21 -103.95C1028.05 -121.672 1028.13 -138.195 1034.49 -157.846C1040.87 -177.537 1053.6 -200.465 1076.9 -230.911C1128.59 -298.29 1107.78 -378.91 1056.73 -434.641C1005.71 -490.34 924.008 -521.736 853.132 -490.394L853.121 -490.389L853.11 -490.384C820.398 -475.277 795.672 -472.344 775.173 -475.195C754.954 -478.008 738.711 -486.458 722.73 -494.772L721.963 -495.171C705.79 -503.582 689.786 -511.784 670.425 -513.19C651.012 -514.6 628.423 -509.176 598.977 -490.823C559.078 -465.944 541.693 -428.952 524.607 -392.594C524.113 -391.541 523.618 -390.489 523.124 -389.438C505.506 -352.001 487.514 -315.591 445.158 -292.812ZM335.8 -52.4611C349.094 -26.7181 373.075 -4.54608 410.057 10.4809C454.886 28.481 490.511 40.8109 519.875 50.8109C522.503 51.7009 525.081 52.5809 527.611 53.4409H527.612C553.341 62.1809 574.162 69.2509 592.203 77.1509C631.985 94.5709 658.264 116.001 694.493 167.971C745.688 231.371 825.084 241.211 894.564 215.541C964.085 189.861 1023.35 128.721 1034.08 50.6409C1042.59 -11.2261 1036.15 -49.0751 1030.89 -79.9221L1030.89 -79.9231C1029.48 -88.2071 1028.16 -95.9851 1027.23 -103.588C1025.04 -121.592 1025.1 -138.582 1031.64 -158.77C1038.17 -178.917 1051.11 -202.153 1074.52 -232.734L1074.52 -232.736C1125.03 -298.574 1104.96 -377.552 1054.52 -432.615C1004.05 -487.708 923.673 -518.302 854.355 -487.655C821.236 -472.362 795.933 -469.278 774.76 -472.224C754.023 -475.108 737.383 -483.766 721.486 -492.037L721.485 -492.038L720.578 -492.51C704.349 -500.951 688.865 -508.843 670.208 -510.198C651.603 -511.549 629.642 -506.401 600.564 -488.277C561.427 -463.874 544.38 -427.606 527.222 -391.105L527.176 -391.007C526.73 -390.058 526.285 -389.109 525.838 -388.161C508.233 -350.751 489.893 -313.461 446.571 -290.165L446.563 -290.161L446.554 -290.157C383.515 -257.257 337.482 -196.917 325.707 -137.413C319.824 -107.683 322.499 -78.2161 335.8 -52.4611Z" fill="url(#paint0_linear_103_69)"/>
<defs>
<linearGradient id="paint0_linear_103_69" x1="588" y1="1.50006" x2="588" y2="389" gradientUnits="userSpaceOnUse">
<stop stop-color="#38373C"/>
<stop offset="0.554369" stop-color="#38373C" stop-opacity="0.3"/>
</linearGradient>
</defs>
</svg>
