<svg width="24" height="24" viewBox="0 0 24 24" fill="none" xmlns="http://www.w3.org/2000/svg">
<path fill-rule="evenodd" clip-rule="evenodd" d="M2.3999 5.70005C2.3999 5.20299 2.80285 4.80005 3.2999 4.80005H20.6999C21.197 4.80005 21.5999 5.20299 21.5999 5.70005C21.5999 6.19711 21.197 6.60005 20.6999 6.60005H3.2999C2.80285 6.60005 2.3999 6.19711 2.3999 5.70005ZM2.3999 18.3C2.3999 17.803 2.80285 17.4 3.2999 17.4H12.2999C12.797 17.4 13.1999 17.803 13.1999 18.3C13.1999 18.7971 12.797 19.2 12.2999 19.2H3.2999C2.80285 19.2 2.3999 18.7971 2.3999 18.3Z" fill="white"/>
<path fill-rule="evenodd" clip-rule="evenodd" d="M2.3999 12.0001C2.3999 11.503 2.80285 11.1001 3.2999 11.1001H20.6999C21.197 11.1001 21.5999 11.503 21.5999 12.0001C21.5999 12.4972 21.197 12.9001 20.6999 12.9001H3.2999C2.80285 12.9001 2.3999 12.4972 2.3999 12.0001Z" fill="white"/>
</svg>
